<?xml version="1.0" encoding="UTF-8" standalone="no"?>
<!-- Created with Inkscape (http://www.inkscape.org/) -->
<svg xmlns:inkscape="http://www.inkscape.org/namespaces/inkscape" xmlns:rdf="http://www.w3.org/1999/02/22-rdf-syntax-ns#" xmlns="http://www.w3.org/2000/svg" xmlns:sodipodi="http://sodipodi.sourceforge.net/DTD/sodipodi-0.dtd" xmlns:ns1="http://sozi.baierouge.fr" xmlns:cc="http://creativecommons.org/ns#" xmlns:xlink="http://www.w3.org/1999/xlink" xmlns:dc="http://purl.org/dc/elements/1.1/" id="svg2" sodipodi:docname="stads huis.svg" viewBox="0 0 324.64 310.38" sodipodi:version="0.32" version="1.0" inkscape:output_extension="org.inkscape.output.svg.inkscape" inkscape:version="0.48.2 r9819">
  <defs id="defs4">
    <linearGradient id="linearGradient4030" inkscape:collect="always">
      <stop id="stop4032" style="stop-color:#ffffff" offset="0"/>
      <stop id="stop4034" style="stop-color:#ffffff;stop-opacity:.28112" offset="1"/>
    </linearGradient>
    <linearGradient id="linearGradient3790">
      <stop id="stop3792" style="stop-color:#590000" offset="0"/>
      <stop id="stop3794" style="stop-color:#6d0000" offset="1"/>
    </linearGradient>
    <linearGradient id="linearGradient3180">
      <stop id="stop3182" style="stop-color:#748286" offset="0"/>
      <stop id="stop3184" style="stop-color:#a6afb2" offset="1"/>
    </linearGradient>
    <linearGradient id="linearGradient3331" y2="203.39" xlink:href="#linearGradient4030" gradientUnits="userSpaceOnUse" x2="605.2" gradientTransform="matrix(.57224 0 0 .57224 -70.258 620.68)" y1="203.39" x1="462.78" inkscape:collect="always"/>
    <linearGradient id="linearGradient3333" y2="217.07" xlink:href="#linearGradient4030" gradientUnits="userSpaceOnUse" x2="323.3" gradientTransform="matrix(.57224 0 0 .57224 -70.258 620.68)" y1="217.07" x1="213.96" inkscape:collect="always"/>
    <linearGradient id="linearGradient3335" y2="285.02" xlink:href="#linearGradient4030" gradientUnits="userSpaceOnUse" x2="732.74" gradientTransform="matrix(.57224 0 0 .57224 -70.258 620.68)" y1="285.02" x1="596.99" inkscape:collect="always"/>
    <linearGradient id="linearGradient3337" y2="318.51" xlink:href="#linearGradient4030" gradientUnits="userSpaceOnUse" x2="458.02" gradientTransform="matrix(.57224 0 0 .57224 -70.258 620.68)" y1="261.45" x1="389.88" inkscape:collect="always"/>
    <linearGradient id="linearGradient3339" y2="551.73" xlink:href="#linearGradient3790" gradientUnits="userSpaceOnUse" x2="627.08" gradientTransform="translate(4.4265 -15.647)" y1="551.73" x1="470.22" inkscape:collect="always"/>
    <linearGradient id="linearGradient3341" y2="431.92" xlink:href="#linearGradient3180" gradientUnits="userSpaceOnUse" x2="471.95" gradientTransform="translate(4.4265 -15.647)" y1="431.92" x1="313.48" inkscape:collect="always"/>
    <linearGradient id="linearGradient3343" y2="427.5" xlink:href="#linearGradient3180" gradientUnits="userSpaceOnUse" x2="636.35" gradientTransform="translate(4.4265 -15.647)" y1="427.5" x1="461.41" inkscape:collect="always"/>
    <linearGradient id="linearGradient3345" y2="551.16" xlink:href="#linearGradient3790" gradientUnits="userSpaceOnUse" x2="471.2" gradientTransform="translate(4.4265 -15.647)" y1="551.16" x1="334.5" inkscape:collect="always"/>
  </defs>
  <sodipodi:namedview id="base" fit-margin-left="0" inkscape:zoom="1.753972" borderopacity="1.0" inkscape:current-layer="layer1" inkscape:cx="220.09958" inkscape:cy="181.04126" inkscape:object-paths="true" inkscape:window-maximized="1" showgrid="false" fit-margin-right="0" inkscape:snap-global="false" inkscape:document-units="px" bordercolor="#666666" inkscape:window-x="0" guidetolerance="10" objecttolerance="10" inkscape:object-nodes="true" inkscape:window-y="0" fit-margin-bottom="0" inkscape:window-width="1680" inkscape:pageopacity="0.0" inkscape:pageshadow="2" pagecolor="#ffffff" gridtolerance="10000" inkscape:window-height="1002" fit-margin-top="0">
    <inkscape:grid id="grid3971" enabled="true" visible="true" snapvisiblegridlinesonly="true" type="xygrid" empspacing="5"/>
  </sodipodi:namedview>
  <g id="layer1" inkscape:label="Layer 1" inkscape:groupmode="layer" transform="translate(-32.924 -721.19)">
    <g id="g3276">
      <g id="g3268">
        <rect id="rect3027" style="fill:#65c9ff" height="263.58" width="324.34" y="721.19" x="33.201"/>
        <g id="g3262">
          <path id="path3260" style="fill:url(#linearGradient3331)" inkscape:connector-curvature="0" d="m252.69 721.19h-26.312c-0.62642 0.58731-1.2677 1.1775-1.6562 1.8438-1.6073-0.32323-3.3295-0.5-5.125-0.5-8.686 0-15.719 4.1206-15.719 9.1875 0 0.30249 0.0134 0.58002 0.0625 0.875-5.5181 1.4247-9.375 4.6596-9.375 8.4062 0 4.5687 5.7252 8.3617 13.219 9.0625 1.5047 4.1515 7.8101 7.25 15.375 7.25 4.3077 0 8.2221-0.98852 11.062-2.625 2.6688 1.217 6.0375 1.9062 9.6875 1.9062 8.686 0 15.719-4.0894 15.719-9.1562 0-0.28774-0.0181-0.56278-0.0625-0.84375 0.25878 0.007 0.51934 0 0.78125 0 8.686 0 15.719-4.1207 15.719-9.1875s-7.0327-9.1562-15.719-9.1562c-2.0597 0-4.041 0.23631-5.8438 0.65625 0.5258-0.91588 0.8125-1.8871 0.8125-2.9062 0-1.796-1.0955-3.3975-2.625-4.8125z"/>
          <path id="path4024" d="m93.367 727.71c-3.4255 0.10129-6.5439 0.89636-8.9521 2.1396-2.3527-0.94009-5.2024-1.4833-8.2695-1.4833-6.8715 0-12.636 2.7608-14.216 6.4844-5.6824 1.1747-9.7528 4.3422-9.7528 8.0595 0 3.7687 4.1835 6.9639 9.989 8.0989 0.10715 4.6645 6.6271 8.427 14.649 8.427 1.25 0 2.4514-0.0906 3.6097-0.26252 2.6847 1.7914 6.6265 2.9271 11.026 2.9271 6.5038 0 12.016-2.4717 13.927-5.8937 5.4839-1.2346 9.3721-4.3464 9.3721-7.9807 0-3.0042-2.662-5.6306-6.6812-7.1538-0.0537-0.53644-0.1912-1.0698-0.40692-1.5751 0.70639-1.0015 1.1026-2.1052 1.1026-3.2553 0-4.7183-6.5603-8.532-14.649-8.532-0.25277 0-0.49857-0.007-0.74819 0z" style="fill:url(#linearGradient3333)" inkscape:connector-curvature="0"/>
          <path id="path3979" d="m319.67 763.98c-5.5908 0-10.435 1.8621-12.807 4.5824-0.29963-0.0109-0.5967-0.0129-0.90103-0.0129-5.8793 0-10.933 2.0563-13.155 5.0072-2.0919-0.69416-4.5136-1.0941-7.0924-1.0941-7.9318 0-14.352 3.7527-14.352 8.3796s6.4203 8.3796 14.352 8.3796c0.26523 0 0.53639-0.005 0.79806-0.0129 0.98765 4.0652 6.9818 7.1954 14.223 7.1954 0.48707 0 0.96705-0.0239 1.4416-0.0515 0.96068 4.0829 6.9602 7.234 14.223 7.234 4.4832 0 8.4875-1.1989 11.121-3.0764 2.1078 0.70854 4.5493 1.107 7.1567 1.107 7.9318 0 14.365-3.7398 14.365-8.3667 0-3.5684-3.8279-6.6186-9.2162-7.8261 0.46621-0.82536 0.7337-1.7094 0.7337-2.6258 0-3.1837-3.0467-5.9451-7.53-7.3627 0.64674-0.95358 0.99113-1.9886 0.99113-3.0764 0-4.6269-6.4203-8.3796-14.352-8.3796z" style="fill:url(#linearGradient3335)" inkscape:connector-curvature="0"/>
          <path id="path4028" style="fill:url(#linearGradient3337)" inkscape:connector-curvature="0" d="m174.99 767.61c-3.4255 0.10129-6.5439 0.89636-8.9521 2.1396-2.3527-0.94009-5.2024-1.4833-8.2695-1.4833-6.8715 0-12.636 2.7608-14.216 6.4844-5.6824 1.1747-9.7528 4.3422-9.7528 8.0595 0 3.7687 4.1835 6.9639 9.989 8.0989 0.10715 4.6645 6.6271 8.427 14.649 8.427 1.25 0 2.4514-0.0906 3.6097-0.26252 2.6847 1.7914 6.6265 2.9271 11.026 2.9271 6.5038 0 12.016-2.4717 13.927-5.8937 5.4839-1.2346 9.3721-4.3464 9.3721-7.9807 0-3.0042-2.662-5.6306-6.6812-7.1538-0.0537-0.53644-0.19119-1.0698-0.40691-1.5752 0.70638-1.0015 1.1026-2.1052 1.1026-3.2553 0-4.7183-6.5603-8.532-14.649-8.532-0.25277 0-0.49857-0.007-0.7482 0z"/>
        </g>
      </g>
      <g id="g3111" transform="matrix(.57224 0 0 .57224 -70.258 620.68)">
        <rect id="rect3977" style="fill:#906e6e" transform="scale(1,-1)" height="81.427" width="566.79" y="-717.67" x="180.8"/>
        <path id="rect3797" sodipodi:nodetypes="ccccccc" style="fill:#ac9393" inkscape:connector-curvature="0" d="m180.81 636.25v81.781h394.5l172.28-25.358-0.0109-85.564-272.94 31.738z"/>
      </g>
      <g id="g3051" transform="matrix(.57224 0 0 .57224 -70.258 620.68)">
        <path id="path2561" sodipodi:nodetypes="ccccc" style="fill-rule:evenodd;fill:url(#linearGradient3339)" inkscape:connector-curvature="0" d="m475.05 433.31 156.46 21.926-0.5662 170.16-156.3 13.45z"/>
        <path id="path2709" sodipodi:nodetypes="ccccc" style="fill-rule:evenodd;stroke:#000000;stroke-width:1px;fill:#ffffff" inkscape:connector-curvature="0" d="m505.67 555.07-0.73699 81.175 40.672-3.5001-0.46492-77.951z"/>
        <path id="path2555" sodipodi:nodetypes="cccc" style="fill-rule:evenodd;fill:url(#linearGradient3341)" inkscape:connector-curvature="0" d="m318.41 462.75 157.47-33.053-9.4883-59.89-147.98 92.944z"/>
        <path id="path2557" sodipodi:nodetypes="cccc" style="fill-rule:evenodd;fill:url(#linearGradient3343)" inkscape:connector-curvature="0" d="m475.76 429.81 164.51 23.857-173.93-83.631 9.4162 59.774z"/>
        <path id="path2559" sodipodi:nodetypes="csccc" style="fill-rule:evenodd;fill:url(#linearGradient3345)" inkscape:connector-curvature="0" d="m339.54 461.05s-1.7398 178.05-1.5584 177.79c0.25754-0.36215 136.66 0.007 136.66 0.007l0.53612-206.25z"/>
        <path id="path2563" sodipodi:nodetypes="ccccc" style="fill-rule:evenodd;fill:#444d4f" inkscape:connector-curvature="0" d="m319.09 462.32 20.228-0.58989 136.86-28.263-0.0369-3.9933-157.05 32.846z"/>
        <path id="path2565" sodipodi:nodetypes="ccccc" style="fill-rule:evenodd;fill:#343b3c" inkscape:connector-curvature="0" d="m474.98 433.43 0.88127-3.6726 164.51 24.013-9.8301 1.5524-155.56-21.893z"/>
        <path id="path2685" style="fill-rule:evenodd;stroke:#000000;stroke-width:1px;fill:#ffffff" inkscape:connector-curvature="0" d="m360.76 482.75 31.466-5.5203 0.82805 44.991-30.914 3.8642-1.3801-43.335z"/>
        <path id="path2687" sodipodi:nodetypes="ccccc" style="fill-rule:evenodd;stroke:#000000;stroke-width:1px;fill:#4d4d4d" inkscape:connector-curvature="0" d="m366.56 481.65 0.82805 26.774 19.045-2.4842-1.3801-27.326-18.493 3.0362z"/>
        <path id="path2689" sodipodi:nodetypes="ccccc" style="fill-rule:evenodd;stroke:#000000;stroke-width:1px;fill:#ffffff" inkscape:connector-curvature="0" d="m358.56 482.75-0.00001-6.0724 33.122-5.2443 1.1041 6.0724-34.226 5.2443z"/>
        <path id="path2691" style="fill-rule:evenodd;stroke:#000000;stroke-width:1px;fill:#ffffff" inkscape:connector-curvature="0" d="m404.65 468.12 0.55204 5.2443 31.19-4.6923-0.27601-6.9004-31.466 6.3484z"/>
        <path id="path2693" sodipodi:nodetypes="ccccc" style="fill-rule:evenodd;stroke:#000000;stroke-width:1px;fill:#ffffff" inkscape:connector-curvature="0" d="m436.39 468.67 1.7109 49.268-31.493 2.5948-1.408-47.447z"/>
        <path id="path2695" sodipodi:nodetypes="ccccc" style="fill-rule:evenodd;stroke:#000000;stroke-width:1px;fill:#4d4d4d" inkscape:connector-curvature="0" d="m410.2 473.32 0.74794 29.107 21.171-2.8429-0.94125-30.129z"/>
        <path id="path2697" sodipodi:nodetypes="ccccc" style="fill-rule:evenodd;stroke:#000000;stroke-width:1px;fill:#ffffff" inkscape:connector-curvature="0" d="m512.02 456.8-0.55204 57.687 32.957 1.5186 0.71745-55.066z"/>
        <path id="path2699" sodipodi:nodetypes="ccccc" style="fill-rule:evenodd;fill:#4d4d4d" inkscape:connector-curvature="0" d="m517.54 457.36-0.55204 37.262 23.185 1.9321-0.82805-36.434-21.805-2.7602z"/>
        <path id="path2701" sodipodi:nodetypes="ccccc" style="fill-rule:evenodd;stroke:#000000;stroke-width:1px;fill:#ffffff" inkscape:connector-curvature="0" d="m512.57 450.46-0.82805 6.0724 35.33 4.4163 0.27601-6.9004-34.778-3.5882z"/>
        <path id="path2703" sodipodi:nodetypes="ccccc" style="fill-rule:evenodd;stroke:#000000;stroke-width:.96063px;fill:#ffffff" inkscape:connector-curvature="0" d="m550.09 461.2-0.82906 55.968 31.228 2.0352 1.1054-54.441-31.504-3.5616z"/>
        <path id="path2705" sodipodi:nodetypes="ccccc" style="fill-rule:evenodd;stroke:#000000;stroke-width:1px;fill:#ffffff" inkscape:connector-curvature="0" d="m549.84 455.42-0.55203 6.0724 33.398 3.3122-0.55203-5.7964-32.294-3.5882z"/>
        <path id="path2707" sodipodi:nodetypes="ccccc" style="fill-rule:evenodd;fill:#4d4d4d" inkscape:connector-curvature="0" d="m554.8 461.77 0.27601 35.882 21.805 1.3801 0.27601-34.778-22.357-2.4842z"/>
        <path id="path2713" sodipodi:nodetypes="ccccc" style="fill-rule:evenodd;stroke:#000000;stroke-width:1px;fill:#ffffff" inkscape:connector-curvature="0" d="m585.99 466.19 25.67 3.5882-0.82805-6.3484-25.394-3.0362 0.55203 5.7964z"/>
        <path id="path2715" style="fill-rule:evenodd;stroke:#000000;stroke-width:1px;fill:#ffffff" inkscape:connector-curvature="0" d="m585.72 466.19-2.2081 52.443 29.258 1.3801-1.6561-50.787-25.394-3.0362z"/>
        <path id="path2717" sodipodi:nodetypes="ccccc" style="fill-rule:evenodd;fill:#4d4d4d" inkscape:connector-curvature="0" d="m589.86 466.74-0.27601 34.226 16.285 1.1041v-33.122l-16.009-2.2081z"/>
        <path id="path3494" style="fill-rule:evenodd;stroke:#000000;stroke-width:1px;fill:#ffffff" inkscape:connector-curvature="0" d="m504.84 555.07 0.27601 8.5565 42.507-1.1041-0.55204-8.0045-42.231 0.55204z"/>
        <path id="path3496" sodipodi:nodetypes="ccccc" style="fill-rule:evenodd;stroke:#000000;stroke-width:1px;fill:#ffffff" inkscape:connector-curvature="0" d="m568.65 556.18v7.1764l50.235 0.82805-0.27601-7.1764-49.959-0.82805z"/>
        <path id="path3498" sodipodi:nodetypes="ccccc" style="fill-rule:evenodd;stroke:#000000;stroke-width:1px;fill:#ffffff" inkscape:connector-curvature="0" d="m568.65 563.36 0.45602 67.358 47.555-4.0924 1.12-62.714z"/>
        <path id="path3502" sodipodi:nodetypes="ccccc" style="fill-rule:evenodd;stroke:#000000;stroke-width:1px;fill:#4d4d4d" inkscape:connector-curvature="0" d="m573.89 563.64-0.27601 44.163 34.226-1.1041 0.55204-42.783-34.502-0.27602z"/>
        <path id="path3500" style="fill-rule:evenodd;stroke:#000000;stroke-width:1px;fill:#4d4d4d" inkscape:connector-curvature="0" d="m510.64 563.35-0.27601 32.294 28.43-1.1041-0.55203-31.742-27.602 0.55203z"/>
        <path id="path3511" sodipodi:nodetypes="ccccc" style="fill-rule:evenodd;stroke:#000000;fill:#ffffff" inkscape:connector-curvature="0" d="m403.56 563.64 0.87268 6.96 49.858-3.1912-0.1603-8.8819-50.57 5.1131z"/>
        <path id="path3513" sodipodi:nodetypes="ccccc" style="fill-rule:evenodd;stroke:#000000;fill:#ffffff" inkscape:connector-curvature="0" d="m454.57 567.41-0.39171 59.97-48.299-0.5725 0.48927-56.021 48.202-3.3769z"/>
        <path id="path3515" sodipodi:nodetypes="ccccc" style="fill-rule:evenodd;stroke:#000000;fill:#4d4d4d" inkscape:connector-curvature="0" d="m415.25 569.87-0.0265 50.146 30.446-0.26068-0.29416-51.702-30.125 1.8162z"/>
      </g>
      <g id="g3083" transform="matrix(.57224 0 0 .57224 -70.258 620.68)">
        <path id="path3955" sodipodi:nodetypes="ccccc" style="stroke:#000000;stroke-width:1px;fill:#3b4a00" inkscape:connector-curvature="0" d="m181.27 579.07-0.46 57.18c12.501 6.3147 25.149 11.304 39.608-0.004 17.883 7.2896 35.767 2.0142 53.65-0.005-18.202-30.013-14.915-101.76-92.797-57.175z"/>
        <path id="path4322" sodipodi:nodetypes="ccccccccccccc" d="m233.62 614.41c-3.9701-4.6153-8.8324-9.6756-14.877-10.431-5.0232-1.6333-8.2103-7.3232-11.708-11.401-2.3788-3.1287-6.4645-5.3771-9.1262-8.1717-4.7318-1.8191-10.229-1.1104-14.351-4.1159-6.0038-0.76096 1.4483-5.3697 2.8795-8.29 2.683-5.0788 6.46-9.7286 8.8867-15.197 1.7236-4.2537 6.5094-4.065 9.5493-6.7304 4.1259-2.3279 9.2304-2.0456 12.414-6.5925 3.585-0.75444 5.5194-6.6249 8.4167-1.4683 4.5262 4.583 11.098 4.5576 16.252 7.6276 3.4251 4.1742 9.6579 5.0558 11.676 10.866 48.416 15.09-6.1635 86.502-20.013 53.904z" style="stroke-linejoin:bevel;fill-rule:evenodd;stroke:#000000;stroke-width:.92640;fill:#526600" inkscape:connector-curvature="0"/>
        <path id="path4828" sodipodi:nodetypes="ccccccccccccc" d="m331.36 571.87c-1.1973 7.8814-1.4008 15.972-3.291 23.712-2.5835 6.8346-4.2601 14.095-7.5804 20.601-31.337 48.104-94.022 3.2936-86.864-1.7715 3.4748-7.6784 11.321-11.736 14.086-19.698-0.51438-5.1678-3.8462-10.494-1.9122-15.579 2.9359-8.2057 5.2901-16.695 8.7602-24.665 3.5606-4.4391 5.1241-11.259 10.97-13.192 5.0438-2.2646 10.261-4.394 14.215-8.3785l6.7858-5.7498c4.7515 4.3221 11.561 6.8689 14.625 12.693 3.116 5.4876 5.1875 11.911 10.795 15.416 6.4823 5.5228 12.952 11.06 19.41 16.611" style="stroke-linejoin:bevel;fill-rule:evenodd;stroke:#000000;stroke-width:1.3657;fill:#668000" inkscape:connector-curvature="0"/>
        <path id="path4324" sodipodi:nodetypes="cscssccccccccc" d="m380.37 606.92c-2.8855 28.615 38.328 30.475 25.257 31.788-2.6675 0.26798-11.892-0.58019-19.468-0.0206-3.7623 7.8883-22.794 0.88654-48.181 0.15394-14.012-0.40434-22.702 5.8509-36.12 5.9888-19.05 0.19574-42.065-8.5883-42.065-8.5883l7.1525-19.691s7.0129-22.132 11.613-32.697c4.7202-5.8847 6.7929-14.926 14.543-17.488 6.6864-3.0021 13.602-5.8249 18.844-11.107l8.9957-7.6223c6.2989 5.7296 15.326 9.1058 19.388 16.827 4.1308 7.2747 6.8768 15.79 14.31 20.436 8.5933 7.3214 17.17 14.662 25.731 22.021" style="stroke-linejoin:bevel;fill-rule:evenodd;stroke:#000000;stroke-width:1.8105;fill:#364400" inkscape:connector-curvature="0"/>
      </g>
      <g id="g3103" transform="matrix(.57224 0 0 .57224 -70.258 620.68)">
        <path id="path3957" d="m747.58 548.42-0.74719 66.668-115.89 10.31 0.26397-79.33z" sodipodi:nodetypes="ccccc" style="fill:#c87844" inkscape:connector-curvature="0"/>
        <path id="path3961" sodipodi:nodetypes="ccccc" style="fill:#a96033" inkscape:connector-curvature="0" d="m747.58 548.42-0.0437 3.904-116.35-1.6446 0.0153-4.6111z"/>
        <path id="path3963" d="m747.42 561.07-0.0437 3.9052-116.35 1.461 0.0153-4.6115z" sodipodi:nodetypes="ccccc" style="fill:#a96033" inkscape:connector-curvature="0"/>
        <path id="path3965" d="m747.58 576.07-0.0437 3.9057-116.35 2.8368 0.0153-4.6117z" sodipodi:nodetypes="ccccc" style="fill:#a96033" inkscape:connector-curvature="0"/>
        <path id="path3967" sodipodi:nodetypes="ccccc" style="fill:#a96033" inkscape:connector-curvature="0" d="m747.63 592.5-0.0437 3.9063-116.35 4.3306 0.0153-4.6119z"/>
        <path id="path3969" d="m746.88 605.63-0.0437 3.9082-116.35 9.4513 0.0153-4.6126z" sodipodi:nodetypes="ccccc" style="fill:#a96033" inkscape:connector-curvature="0"/>
      </g>
    </g>
  </g>
  <metadata>
    <rdf:RDF>
      <cc:Work>
        <dc:format>image/svg+xml</dc:format>
        <dc:type rdf:resource="http://purl.org/dc/dcmitype/StillImage"/>
        <cc:license rdf:resource="http://creativecommons.org/licenses/publicdomain/"/>
        <dc:publisher>
          <cc:Agent rdf:about="http://openclipart.org/">
            <dc:title>Openclipart</dc:title>
          </cc:Agent>
        </dc:publisher>
      </cc:Work>
      <cc:License rdf:about="http://creativecommons.org/licenses/publicdomain/">
        <cc:permits rdf:resource="http://creativecommons.org/ns#Reproduction"/>
        <cc:permits rdf:resource="http://creativecommons.org/ns#Distribution"/>
        <cc:permits rdf:resource="http://creativecommons.org/ns#DerivativeWorks"/>
      </cc:License>
    </rdf:RDF>
  </metadata>
</svg>